<svg xmlns="http://www.w3.org/2000/svg" viewBox="0 0 20.05 68.51"><defs><style>.a{fill:none;stroke:#010101;stroke-miterlimit:10;}</style></defs><path class="a" d="M306,387.25c-4.55,0-8.25,15.48-9.25,26.36-1.7,18.49,2.86,40.67,7.93,41.14s12-21.54,10.57-41.14C314.46,402,310.49,387.22,306,387.25Z" transform="translate(-295.92 -386.75)"/><line class="a" x1="10.11" y1="0.5" x2="8.79" y2="68"/><path class="a" d="M296.65,428.72l18.31,0" transform="translate(-295.92 -386.75)"/><path class="a" d="M304.71,428.75" transform="translate(-295.92 -386.75)"/><line class="a" x1="0.91" y1="44.36" x2="18.68" y2="44.36"/><path class="a" d="M297.54,429.64a1,1,0,0,0,.56.12l2.47.05" transform="translate(-295.92 -386.75)"/><path class="a" d="M298.74,430.15c1.89.36,3.86,0,5.77.26a.23.23,0,0,1-.21-.2.62.62,0,0,1,.06-.3c.07-.2.23-.42.42-.36" transform="translate(-295.92 -386.75)"/><path class="a" d="M297.72,430.44h.21" transform="translate(-295.92 -386.75)"/><path class="a" d="M299,430.43a10.71,10.71,0,0,1-2-.07" transform="translate(-295.92 -386.75)"/><path class="a" d="M303.85,429.12c0,.06,0,.24,0,.29a29.36,29.36,0,0,1-6.42-.44" transform="translate(-295.92 -386.75)"/><path class="a" d="M304.57,430.39l-.08-.09C304.49,430.56,304.57,430.14,304.57,430.39Z" transform="translate(-295.92 -386.75)"/><path class="a" d="M297.66,429a.81.81,0,0,0-.39.87" transform="translate(-295.92 -386.75)"/><path class="a" d="M307.89,429.5a.79.79,0,0,0,.57.3c.74.15,1.48.27,2.23.36" transform="translate(-295.92 -386.75)"/><path class="a" d="M311.8,429.51a1.89,1.89,0,0,1,.9.21" transform="translate(-295.92 -386.75)"/><path class="a" d="M314,429.21c-.09,0-.19,0-.25.12a1.2,1.2,0,0,0-.2.94" transform="translate(-295.92 -386.75)"/><path class="a" d="M314.19,429.73c-1.44,0-2.88.18-4.31.3l-1.69.15" transform="translate(-295.92 -386.75)"/><path class="a" d="M314.1,430.37l-7.36,0" transform="translate(-295.92 -386.75)"/><path class="a" d="M306.4,429.46l-.18,0c2.19,0,4.38,0,6.56,0" transform="translate(-295.92 -386.75)"/><path class="a" d="M305.72,430l1.62,0" transform="translate(-295.92 -386.75)"/><path class="a" d="M305.63,429.33a6.06,6.06,0,0,1,1.75-.18" transform="translate(-295.92 -386.75)"/><path class="a" d="M305.51,430.35h2.68" transform="translate(-295.92 -386.75)"/><path class="a" d="M312.57,429.34c.34-.09.69-.19,1-.31a3,3,0,0,1,.67.57" transform="translate(-295.92 -386.75)"/><path class="a" d="M313.89,430.4c.11,0,.28-.16.39-.18a2.71,2.71,0,0,1,0-.94" transform="translate(-295.92 -386.75)"/><line class="a" x1="1.33" y1="48.24" x2="17.86" y2="48.24"/><line class="a" x1="1.33" y1="45.05" x2="18.68" y2="45.05"/></svg>