<svg xmlns="http://www.w3.org/2000/svg" viewBox="0 0 617.12 368.88"><defs><style>.a{stroke:#000;stroke-miterlimit:10;stroke-width:4px;}</style></defs><path class="a" d="M17,262.48Q23.89,137.54,25.08,58c2.6.1,4.64.15,6.15.15s3.55,0,6.14-.15L33.59,131l-4.3,131.53c-2.59-.1-4.65-.15-6.14-.15S19.6,262.38,17,262.48Z" transform="translate(-14.88 -55.9)"/><path class="a" d="M187.48,247.65a108,108,0,0,0-1.8,11.39,166.82,166.82,0,0,1-22.32,5,141.55,141.55,0,0,1-20.22,1.43q-18,0-31.84-4.86a55.63,55.63,0,0,1-23.74-16.17,67.32,67.32,0,0,1-14.08-25.36,109.07,109.07,0,0,1,3-68.92A67.38,67.38,0,0,1,100.14,120q16.49-12,40.9-12a72.55,72.55,0,0,1,30.41,6.22,44.81,44.81,0,0,1,21.19,20.3q7.58,14.08,7.57,33.41,0,3.58-.3,6.89L81.27,175q-.75,9.72-.75,14.65a91,91,0,0,0,4.2,27.52A56.63,56.63,0,0,0,97.4,239.45a52.14,52.14,0,0,0,20.32,13.3,72.11,72.11,0,0,0,25.05,4.34Q162.87,257.09,187.48,247.65ZM82.61,166.76l106.67.15A97.3,97.3,0,0,0,188.07,151a45.27,45.27,0,0,0-3.9-11.39,41.11,41.11,0,0,0-6.82-10.11,37.13,37.13,0,0,0-9.3-7.19,46,46,0,0,0-11.93-4.42,62.1,62.1,0,0,0-13.8-1.5,67.88,67.88,0,0,0-15.6,1.8,64,64,0,0,0-14,4.94,54.31,54.31,0,0,0-11.78,8,48.13,48.13,0,0,0-9,10.56,59.46,59.46,0,0,0-5.4,10.86A130.81,130.81,0,0,0,82.61,166.76Z" transform="translate(-14.88 -55.9)"/><path class="a" d="M237.21,127.06a106.2,106.2,0,0,0,1.65-11.68,213,213,0,0,1,26.52-5.77A163.82,163.82,0,0,1,288.15,108a125.5,125.5,0,0,1,24.79,2.32q11.46,2.34,18.72,7.79t9.59,12.52A45.52,45.52,0,0,1,343.57,145q0,7.49-.52,18.94t-1.41,24.65q-.9,13.19-1.65,32.88t-.74,28.39v12.58q-3.9-.15-6.3-.15c-1.71,0-3.8.05-6.3.15q2.09-22.92,2.91-37.15t1.35-30.63q.52-16.41,1.42-30.64-4.65,3.88-7.11,5.76a36.47,36.47,0,0,1-5.4,3.37,70.56,70.56,0,0,1-7,3.06q-4.11,1.58-7.56,2.69t-16.71,4.71q-13.25,3.6-18.94,5.39A131.44,131.44,0,0,0,249.64,197a55.69,55.69,0,0,0-12.73,9,29,29,0,0,0-6.59,9.12,30.84,30.84,0,0,0-2.4,12.12,25.93,25.93,0,0,0,5.85,16.9,31.13,31.13,0,0,0,14.76,10.1q8.9,2.91,21.49,2.91a108,108,0,0,0,12.13-.67c3.9-.46,7.57-1.05,11-1.8s8.41-2.17,14.9-4.27q-1.35,5.68-2.25,11.38-12.13,2.4-19.7,3.08t-14.3.67a129.92,129.92,0,0,1-23.22-1.94,39.78,39.78,0,0,1-17.83-7.63,36.07,36.07,0,0,1-10.64-13.17A37.27,37.27,0,0,1,216.69,227a36.37,36.37,0,0,1,2.09-12.19,38.67,38.67,0,0,1,6.44-11.3,40.39,40.39,0,0,1,9.58-8.37,76.39,76.39,0,0,1,15.58-8.08q9.87-3.9,21.26-7.18,3.14-.9,24.7-6.44a121.6,121.6,0,0,0,18.41-6.36,31.49,31.49,0,0,0,13.48-10.62A23.86,23.86,0,0,0,333,142.64a22.53,22.53,0,0,0-2.25-9.81,24.38,24.38,0,0,0-8-8.92,35.41,35.41,0,0,0-14.29-5.84,94.51,94.51,0,0,0-18-1.65A140.86,140.86,0,0,0,270,117.84a133.77,133.77,0,0,0-16.17,3.3A172.52,172.52,0,0,0,237.21,127.06Z" transform="translate(-14.88 -55.9)"/><path class="a" d="M371.89,259.49a108.54,108.54,0,0,0-1.2-12.74A106.86,106.86,0,0,0,393,254.09a98.28,98.28,0,0,0,19.17,2.1q11.54,0,19.7-3.29a25.72,25.72,0,0,0,12.36-9.73,24.28,24.28,0,0,0,4.2-13.47,26.87,26.87,0,0,0-.68-6.06,24.66,24.66,0,0,0-2.17-5.83,35.86,35.86,0,0,0-3.37-5.39,44.7,44.7,0,0,0-5.25-5.61q-3.36-3.15-7.86-7T415,188q-9.58-7.94-15.81-13.69a73.21,73.21,0,0,1-10.33-11.68,45.52,45.52,0,0,1-5.84-10.85,30.19,30.19,0,0,1-1.73-10,29.83,29.83,0,0,1,5.47-16.83,34.57,34.57,0,0,1,15.73-12.5q10.26-4.34,26-4.34a146.13,146.13,0,0,1,29.66,3.45q.15,6.58.9,12.73a87,87,0,0,0-17.15-5.47,83.66,83.66,0,0,0-15.35-1.42,53.6,53.6,0,0,0-18,2.92q-8.23,2.92-12.36,8.53a20.17,20.17,0,0,0-4.12,12.2,24.33,24.33,0,0,0,.9,6.73,26.33,26.33,0,0,0,2.85,6.37,41.4,41.4,0,0,0,5,6.58q3.06,3.36,7.93,7.78t14.08,12.12q9.23,7.71,13.71,11.67t7.72,7.26a70.27,70.27,0,0,1,6.14,7.26,48.54,48.54,0,0,1,4.72,7.71,36.31,36.31,0,0,1,2.69,7.55,33.55,33.55,0,0,1,.9,7.71,31.69,31.69,0,0,1-5.54,17.81q-5.53,8.39-16.1,13.17t-25.4,4.79a132.82,132.82,0,0,1-13.85-.9q-8.33-.9-13.34-1.87T371.89,259.49Z" transform="translate(-14.88 -55.9)"/><path class="a" d="M493.23,262.48l4.49-97.67q.45-14.24,1.79-73.4l.9-33.41q3.45.15,5.7.15c1.69,0,3.64,0,5.84-.15l-4.05,87.49q3.44-7.05,5.92-11.09a46.23,46.23,0,0,1,6.66-8.31,54,54,0,0,1,8.91-7.35A59.81,59.81,0,0,1,540,113.35,78,78,0,0,1,554,109.53a91.46,91.46,0,0,1,16.85-1.5,106.7,106.7,0,0,1,24.72,2.78,50.28,50.28,0,0,1,19.92,9.29,33.67,33.67,0,0,1,11.39,15.65A55.74,55.74,0,0,1,630,154q0,3-.15,8.39-.32,8.25-1.24,22.32l-2.47,61q-.3,5.83-.62,16.77-3.85-.15-5.92-.15-2.22,0-6.08.15,1.8-19.32,2.69-39L618.3,187q1.05-16.92,1.05-29.21,0-14.24-5.32-23.22T596.2,121a76.36,76.36,0,0,0-26.44-4.58,80.16,80.16,0,0,0-18.28,2.1,62.14,62.14,0,0,0-14.68,5.24,42.54,42.54,0,0,0-9.58,6.75,52.6,52.6,0,0,0-8.39,10.18,73,73,0,0,0-6.74,15q-2.55,7.65-3.9,20.53-1,10-2.08,39.24l-1.19,47c-2.6-.1-4.55-.15-5.84-.15S495.83,262.38,493.23,262.48Z" transform="translate(-14.88 -55.9)"/><path class="a" d="M98.62,395.27a40.79,40.79,0,0,0-.44-4.63,39.18,39.18,0,0,0,8.12,2.67,35.65,35.65,0,0,0,7,.77,19.08,19.08,0,0,0,7.16-1.2,9.39,9.39,0,0,0,4.5-3.54,8.88,8.88,0,0,0,1.52-4.9,9.89,9.89,0,0,0-.24-2.2,9.43,9.43,0,0,0-.79-2.12,13.38,13.38,0,0,0-1.23-2,17.42,17.42,0,0,0-1.9-2c-.82-.77-1.78-1.62-2.86-2.56s-2.8-2.38-5.13-4.3-4.24-3.58-5.74-5A26.69,26.69,0,0,1,104.8,360a16.89,16.89,0,0,1-2.13-4,11.2,11.2,0,0,1-.62-3.65,10.84,10.84,0,0,1,2-6.12,12.47,12.47,0,0,1,5.72-4.54,24.39,24.39,0,0,1,9.45-1.58A53.54,53.54,0,0,1,130,341.45c0,1.6.15,3.14.33,4.63a31.38,31.38,0,0,0-6.24-2,30.48,30.48,0,0,0-5.58-.51,19.42,19.42,0,0,0-6.54,1.06,9.22,9.22,0,0,0-4.49,3.1,7.34,7.34,0,0,0-1.5,4.44,8.84,8.84,0,0,0,.33,2.45,9.33,9.33,0,0,0,1,2.31,14.8,14.8,0,0,0,1.83,2.39c.74.82,1.7,1.76,2.88,2.83s2.89,2.54,5.12,4.41,3.9,3.28,5,4.24,2,1.85,2.8,2.64a24.31,24.31,0,0,1,2.24,2.64,17.72,17.72,0,0,1,1.71,2.8,12.84,12.84,0,0,1,1,2.76,12,12,0,0,1,.33,2.8,11.55,11.55,0,0,1-2,6.47,13.52,13.52,0,0,1-5.86,4.79,22.26,22.26,0,0,1-9.23,1.74,50.2,50.2,0,0,1-5-.32c-2-.22-3.63-.45-4.85-.69S100.47,395.82,98.62,395.27Z" transform="translate(-14.88 -55.9)"/><path class="a" d="M190,396.36c-.73,0-1.4-.05-2-.05s-1.29,0-2,.05l.45-11.82a36,36,0,0,1-2,4,21.12,21.12,0,0,1-2.05,2.58,16.66,16.66,0,0,1-3.13,2.59,19.89,19.89,0,0,1-4.44,2.1,28.56,28.56,0,0,1-5.26,1.25,37.89,37.89,0,0,1-5.42.38,35.4,35.4,0,0,1-8.75-1,18.41,18.41,0,0,1-7.19-3.6,13,13,0,0,1-4.28-6,24.22,24.22,0,0,1-1.14-7.71q0-3.33.73-16.42t.73-21.39q1.43.06,2.13.06c.47,0,1.19,0,2.13-.06q-.44,4.7-1.28,19.45t-.84,18.47a19.93,19.93,0,0,0,1.09,7,10,10,0,0,0,3.78,4.76,17,17,0,0,0,6.11,2.64,31.82,31.82,0,0,0,7,.77,26.83,26.83,0,0,0,7.22-1,21.82,21.82,0,0,0,5.76-2.37,16.93,16.93,0,0,0,4-3.48,23.49,23.49,0,0,0,3.43-5.56,25.82,25.82,0,0,0,1.86-6.89q.58-4.11,1-14.9.36-10.35.42-19c1,0,1.71.06,2.18.06s1.18,0,2.13-.06l-2,38.14-.22,8.22C190.06,391.08,190,394,190,396.36Z" transform="translate(-14.88 -55.9)"/><path class="a" d="M205.44,396.36q.66-11.49,1.25-27t.6-23.09l0-4.91c.72,0,1.4.06,2,.06s1.33,0,2-.06l-.49,10.3a30.1,30.1,0,0,1,3.43-5.61,14.77,14.77,0,0,1,3.68-3.19,17.08,17.08,0,0,1,4.9-2,24.94,24.94,0,0,1,5.86-.68,19.65,19.65,0,0,1,4.52.54,30.78,30.78,0,0,0,.22,3.71,26.27,26.27,0,0,0-6.33-.93,14.74,14.74,0,0,0-4.71.71,14,14,0,0,0-3.93,2.07,19,19,0,0,0-6.18,8.77,30.32,30.32,0,0,0-1.47,7.57q-.59,7-.74,15.91-.21,12-.21,17.81c-.95,0-1.68-.05-2.19-.05S206.39,396.33,205.44,396.36Z" transform="translate(-14.88 -55.9)"/><path class="a" d="M241.77,396.36l1-19.28,1-32.69h-6.91a29.31,29.31,0,0,0,.27-3.05h6.72q.28-7.89.45-9.26a18.53,18.53,0,0,1,1-4.55,10.06,10.06,0,0,1,1.69-2.86,11.06,11.06,0,0,1,2.75-2.2,14.64,14.64,0,0,1,4-1.55,22.63,22.63,0,0,1,5.29-.55,29.1,29.1,0,0,1,3.57.22c1.22.14,2.88.43,5,.87a35.14,35.14,0,0,0,.49,3.76,28.34,28.34,0,0,0-9.31-1.8,13.28,13.28,0,0,0-4.23.63,10.49,10.49,0,0,0-3,1.5,7.37,7.37,0,0,0-1.93,2.23,10.65,10.65,0,0,0-1.17,3,28.87,28.87,0,0,0-.55,4.84c0,.44,0,2.35-.14,5.72h16.21a27.91,27.91,0,0,0-.27,3.05H247.55l-1.25,52c-.94,0-1.71-.05-2.29-.05S242.72,396.33,241.77,396.36Z" transform="translate(-14.88 -55.9)"/><path class="a" d="M269.23,396.36q.61-8.16,1.42-28.49t.81-26.53q1.4.06,2.16.06c.53,0,1.27,0,2.2-.06q-.76,10.35-1.5,28.22t-.73,26.8c-.94,0-1.67-.05-2.18-.05S270.17,396.33,269.23,396.36Zm2-69,.16-5.39c.91,0,1.84.05,2.78.05s1.87,0,2.78-.05l-.16,5.39c-.91-.07-1.84-.11-2.78-.11S272.15,327.33,271.24,327.4Z" transform="translate(-14.88 -55.9)"/><path class="a" d="M289.28,396.36l1.84-33.28.49-15.64c.08-2.79.11-4.83.11-6.1q1.42.06,2.13.06t2.07-.06l-.73,12.42c.8-1.7,1.46-3,2-3.89a18.86,18.86,0,0,1,2.15-2.86,19.35,19.35,0,0,1,3.24-2.86,17.72,17.72,0,0,1,4.53-2.23,30.38,30.38,0,0,1,5.42-1.31,38.26,38.26,0,0,1,5.51-.41,37.85,37.85,0,0,1,8.88,1,16.16,16.16,0,0,1,7.14,3.57,13.2,13.2,0,0,1,3.9,5.83,22.84,22.84,0,0,1,1.06,7.06c0,1.12-.05,2.79-.16,5l-1.14,24.78-.22,8.88c-.73,0-1.43-.05-2.12-.05s-1.39,0-2.08.05q.54-6.81.86-13l.76-13.94c.28-5.16.43-8.88.43-11.17a18.65,18.65,0,0,0-1-6.43,10.1,10.1,0,0,0-3.56-4.71,16.45,16.45,0,0,0-6-2.72,30,30,0,0,0-7.19-.85,27.09,27.09,0,0,0-9.15,1.42,19,19,0,0,0-6.58,4,20.11,20.11,0,0,0-4.63,6.68,29.35,29.35,0,0,0-2.07,8.22c-.44,3.05-.78,8-1.06,15s-.4,12.78-.4,17.57c-.95,0-1.68-.05-2.18-.05S290.22,396.33,289.28,396.36Z" transform="translate(-14.88 -55.9)"/><path class="a" d="M356.06,416.25A96.69,96.69,0,0,0,367.94,419a56.83,56.83,0,0,0,8.6.71,29.67,29.67,0,0,0,8.61-1.2,19.81,19.81,0,0,0,6.21-2.88,13.16,13.16,0,0,0,3.54-3.76,19.28,19.28,0,0,0,2.21-6.1,49.76,49.76,0,0,0,.9-7.85q.39-6.75.56-15.25c-.73,1.74-1.35,3.11-1.88,4.11a18.71,18.71,0,0,1-5.51,6.16,24,24,0,0,1-4.3,2.4,27.25,27.25,0,0,1-5.37,1.66,30.41,30.41,0,0,1-6.1.6,32.46,32.46,0,0,1-9.4-1.31,19.85,19.85,0,0,1-7.74-4.41,19.4,19.4,0,0,1-5.15-8,30.35,30.35,0,0,1-1.74-10.27A38.77,38.77,0,0,1,354,359.54a28.86,28.86,0,0,1,7.44-11.14,28.52,28.52,0,0,1,11.14-6.29,47.15,47.15,0,0,1,13.67-1.91,105.21,105.21,0,0,1,18.09,1.91l-.56,6.26c-.11,1.2-.22,2.76-.33,4.69L402.23,378l-.62,22.82a34.52,34.52,0,0,1-1.09,7.24,18.91,18.91,0,0,1-2.83,6.05,17.28,17.28,0,0,1-4.8,4.52,24,24,0,0,1-7.3,2.94,44.53,44.53,0,0,1-10.79,1.2,78.22,78.22,0,0,1-8.61-.46,84.23,84.23,0,0,1-9.75-1.77C356.37,419.06,356.24,417.63,356.06,416.25ZM400,344.67a72.51,72.51,0,0,0-8.28-1.2c-2.07-.15-3.89-.22-5.49-.22a44.8,44.8,0,0,0-11.6,1.42A23.81,23.81,0,0,0,364.8,350a26.15,26.15,0,0,0-6.89,10.07,34.29,34.29,0,0,0-2.45,12.75,28.14,28.14,0,0,0,2.26,11.44,15.78,15.78,0,0,0,7,7.71,21.79,21.79,0,0,0,10.54,2.59,29.15,29.15,0,0,0,7.3-.88,17,17,0,0,0,4.93-2.09,21.05,21.05,0,0,0,4.44-3.84,25.84,25.84,0,0,0,3.74-5.64A28,28,0,0,0,398,375.5a90,90,0,0,0,1.3-12.15Z" transform="translate(-14.88 -55.9)"/><path class="a" d="M483.53,392a33.39,33.39,0,0,0-.76,4.14,66.91,66.91,0,0,1-12.91,1.36,34.36,34.36,0,0,1-10.6-1.58,20.88,20.88,0,0,1-8.47-5.08,21.49,21.49,0,0,1-5.25-8.82,35.79,35.79,0,0,1-1.72-11.13,42.64,42.64,0,0,1,2.7-15.13,23.63,23.63,0,0,1,8.6-11.35q5.91-4.16,16-4.16a47.78,47.78,0,0,1,14,2,31.87,31.87,0,0,0,.38,3.81,69.42,69.42,0,0,0-8.88-2.26,36.62,36.62,0,0,0-5.88-.52,22.5,22.5,0,0,0-10.13,2.2,20,20,0,0,0-7.33,6.23,25.83,25.83,0,0,0-4.14,9,41.51,41.51,0,0,0-1.22,10,35.76,35.76,0,0,0,1.36,10.06,17.08,17.08,0,0,0,4.36,7.62,19.65,19.65,0,0,0,7.35,4.49,27.18,27.18,0,0,0,9.15,1.55,32.93,32.93,0,0,0,5.67-.52A69.86,69.86,0,0,0,483.53,392Z" transform="translate(-14.88 -55.9)"/><path class="a" d="M521.88,340.2a33.88,33.88,0,0,1,9.81,1.42,20.68,20.68,0,0,1,8.36,4.82,21.79,21.79,0,0,1,5.53,8.9,35.42,35.42,0,0,1,1.9,11.66,40.51,40.51,0,0,1-2,12.75A28.17,28.17,0,0,1,539.75,390a20.34,20.34,0,0,1-8.69,5.8,32.64,32.64,0,0,1-10.59,1.69,33.17,33.17,0,0,1-7.71-.9,22.42,22.42,0,0,1-7.08-3,21.82,21.82,0,0,1-5.78-5.5,24.51,24.51,0,0,1-3.76-8,36.17,36.17,0,0,1-1.28-9.64,38.62,38.62,0,0,1,3.27-16,21.72,21.72,0,0,1,9.78-10.71A29.5,29.5,0,0,1,521.88,340.2Zm-.11,3.05a23.93,23.93,0,0,0-12,3.16,18.72,18.72,0,0,0-8.17,9.63,37.65,37.65,0,0,0-2.61,14.2,34,34,0,0,0,1.5,10.23,19.2,19.2,0,0,0,4.82,8.08,18.36,18.36,0,0,0,7.16,4.57,25.24,25.24,0,0,0,8.09,1.28,25.79,25.79,0,0,0,9.1-1.58,18.45,18.45,0,0,0,7.49-5.27,23.08,23.08,0,0,0,4.76-9.09A41.64,41.64,0,0,0,543.4,367a35.93,35.93,0,0,0-1.5-10.53,17.22,17.22,0,0,0-11.85-12.05A28.79,28.79,0,0,0,521.77,343.25Z" transform="translate(-14.88 -55.9)"/></svg>